<svg width="90" height="19" viewBox="0 0 90 19" fill="none" xmlns="http://www.w3.org/2000/svg">
<path fill-rule="evenodd" clip-rule="evenodd" d="M9.73572 0C12.28 0 15.006 0.53629 16.9531 2.27285L14.5387 4.67339C13.2925 3.49866 11.4492 2.91129 9.73572 2.91129C5.97124 2.91129 3.42697 5.77151 3.42697 9.37231C3.42697 13.1008 5.81547 16.0887 9.76168 16.0887C11.1377 16.0887 12.7473 15.8589 14.0454 15.1438V10.879H10.2809V7.96774H17.3166V17.2124C14.8762 18.4892 12.306 19 9.73572 19C4.0241 19 0 15.1694 0 9.57661C0 3.88172 3.94621 0 9.73572 0ZM26.5531 5.97581C30.4993 5.97581 32.3945 8.91263 32.3945 12.6156V13.4839H22.8924C23.1001 15.246 24.4501 16.3952 26.2415 16.3952C27.6435 16.3952 28.7079 15.8078 29.5906 14.7352L31.8233 16.3952C30.4733 18.0296 28.6819 18.8468 26.5531 18.8468C22.7367 18.8468 19.777 16.2419 19.777 12.4113C19.777 8.60618 22.7367 5.97581 26.5531 5.97581ZM22.8924 11.1855H29.2791C29.2531 9.27016 27.929 8.27419 26.0857 8.27419C24.2424 8.27419 23.1261 9.44893 22.8924 11.1855ZM41.6309 5.97581C45.3435 5.97581 46.1743 8.81048 46.1743 10.7003V18.5403H43.0588V12.1815C43.0588 9.72984 42.254 8.73387 40.7742 8.73387C38.7751 8.73387 37.9184 10.164 37.9184 11.7984V18.5403H34.803V6.28226H37.7626V8.24866H37.8145C38.5674 6.63978 39.9953 5.97581 41.6309 5.97581ZM55.3588 5.97581C59.305 5.97581 61.2002 8.91263 61.2002 12.6156V13.4839H51.6982C51.9059 15.246 53.2559 16.3952 55.0473 16.3952C56.4492 16.3952 57.5136 15.8078 58.3964 14.7352L60.6291 16.3952C59.2791 18.0296 57.4877 18.8468 55.3588 18.8468C51.5424 18.8468 48.5827 16.2419 48.5827 12.4113C48.5827 8.60618 51.5424 5.97581 55.3588 5.97581ZM51.6982 11.1855H58.0848C58.0588 9.27016 56.7348 8.27419 54.8915 8.27419C53.0482 8.27419 51.9318 9.44893 51.6982 11.1855ZM67.8665 5.97581C69.8136 5.97581 71.4232 6.63978 72.3319 7.84005L70.255 9.67876C69.6319 8.83602 68.853 8.42742 67.8145 8.42742C66.802 8.42742 65.9972 8.93817 65.9972 9.72984C65.9972 10.7258 67.3991 10.9046 68.9569 11.2621C70.878 11.6962 72.7213 12.3858 72.7213 14.914C72.7213 17.4933 70.4107 18.8468 67.3213 18.8468C65.4001 18.8468 63.7645 18.3616 62.4923 16.957L64.5693 15.0417C65.6337 16.1909 66.4645 16.5484 67.529 16.5484C68.6713 16.5484 69.6059 15.9866 69.6059 15.1438C69.6059 13.9691 68.1001 13.7648 66.5164 13.4073C64.8289 13.0242 62.8818 12.4368 62.8818 9.93414C62.8818 6.94624 65.7376 5.97581 67.8665 5.97581ZM76.2202 0.280914C77.3625 0.280914 78.2452 1.07258 78.2452 2.11962C78.2452 3.21774 77.3366 3.95833 76.2202 3.95833C75.1038 3.95833 74.2471 3.11559 74.2471 2.11962C74.2471 1.12366 75.1038 0.280914 76.2202 0.280914ZM74.6885 6.28226H77.8039V18.5403H74.6885V6.28226ZM85.1451 5.97581C87.0923 5.97581 88.7019 6.63978 89.6106 7.84005L87.5336 9.67876C86.9105 8.83602 86.1317 8.42742 85.0932 8.42742C84.0807 8.42742 83.2759 8.93817 83.2759 9.72984C83.2759 10.7258 84.6778 10.9046 86.2355 11.2621C88.1567 11.6962 90 12.3858 90 14.914C90 17.4933 87.6894 18.8468 84.5999 18.8468C82.6787 18.8468 81.0431 18.3616 79.771 16.957L81.848 15.0417C82.9124 16.1909 83.7432 16.5484 84.8076 16.5484C85.9499 16.5484 86.8846 15.9866 86.8846 15.1438C86.8846 13.9691 85.3788 13.7648 83.7951 13.4073C82.1076 13.0242 80.1604 12.4368 80.1604 9.93414C80.1604 6.94624 83.0162 5.97581 85.1451 5.97581Z" fill="#111111"/>
</svg>
